<svg xmlns="http://www.w3.org/2000/svg" version="1.1" xmlns:xlink="http://www.w3.org/1999/xlink" width="512" height="512" x="0" y="0" viewBox="0 0 512 512" style="enable-background:new 0 0 512 512" xml:space="preserve" class=""><g><path fill="#1ca8ff" d="M256 7.5C118.757 7.5 7.5 118.757 7.5 256S118.757 504.5 256 504.5 504.5 393.243 504.5 256 393.243 7.5 256 7.5z" opacity="1" data-original="#1ca8ff" class=""></path><path fill="#0094fd" d="M76.123 256c0-125.6 93.186-229.417 214.188-246.131A250.507 250.507 0 0 0 256 7.5C118.757 7.5 7.5 118.757 7.5 256S118.757 504.5 256 504.5c11.643 0 23.094-.82 34.311-2.369C169.309 485.416 76.123 381.599 76.123 256z" opacity="1" data-original="#0094fd"></path><path fill="#60b9fe" d="M512 256C512 114.136 396.983 0 256 0 115.002 0 0 114.206 0 256c0 142.016 115.152 256 256 256 140.782 0 256-113.914 256-256zM322.568 487.56c25.379-19.855 44.7-49.032 57.942-78.41 16.727 4.636 32.309 10.217 46.333 16.661-28.02 28.189-63.227 49.914-104.275 61.749zM85.157 425.811c14.024-6.444 29.605-12.024 46.333-16.661 13.251 29.399 32.577 58.566 57.942 78.41-39.522-11.395-75.132-32.431-104.275-61.749zM263.5 393.23c35.805.517 70.659 4.723 102.135 12.119-20.12 43.585-54.958 86.98-102.135 91.297zm-15 103.417c-47.15-4.314-81.974-47.624-102.135-91.297 31.476-7.397 66.33-11.603 102.135-12.12zM386.346 395.23c7.955-20.374 14.15-42.668 18.382-66.432.077-.434.116-.874.116-1.314v-11.815c0-4.143-3.358-7.5-7.5-7.5s-7.5 3.357-7.5 7.5v11.149c-4.123 22.917-10.309 44.716-18.213 64.568-33.304-8.048-70.245-12.624-108.132-13.158v-48.899c0-4.143-3.358-7.5-7.5-7.5s-7.5 3.357-7.5 7.5v48.899c-37.887.535-74.828 5.11-108.132 13.158-7.903-19.852-14.09-41.652-18.213-64.569v-11.149c0-4.143-3.358-7.5-7.5-7.5s-7.5 3.357-7.5 7.5v11.815c0 .44.039.881.116 1.314 4.231 23.765 10.427 46.059 18.382 66.432-18.608 5.254-35.855 11.645-51.226 19.062-35.455-40.617-57.53-93.192-59.3-150.792h58.081c4.142 0 7.5-3.357 7.5-7.5s-3.358-7.5-7.5-7.5H15.128c1.77-57.601 23.845-110.175 59.3-150.792 15.371 7.417 32.618 13.808 51.225 19.062-7.955 20.374-14.15 42.668-18.382 66.433a7.525 7.525 0 0 0-.116 1.314v9.651c0 4.143 3.358 7.5 7.5 7.5s7.5-3.357 7.5-7.5v-8.985c4.123-22.917 10.31-44.716 18.213-64.569 33.304 8.049 70.246 12.624 108.132 13.159v47.938c0 4.143 3.358 7.5 7.5 7.5s7.5-3.357 7.5-7.5v-47.938c37.886-.535 74.827-5.11 108.131-13.159 7.904 19.852 14.09 41.652 18.213 64.569v8.985c0 4.143 3.358 7.5 7.5 7.5s7.5-3.357 7.5-7.5v-9.651c0-.44-.039-.881-.116-1.314-4.231-23.765-10.427-46.059-18.382-66.433 18.607-5.254 35.855-11.644 51.226-19.062 35.455 40.617 57.53 93.192 59.3 150.792h-57.964c-4.142 0-7.5 3.357-7.5 7.5s3.358 7.5 7.5 7.5h57.964c-1.77 57.6-23.845 110.175-59.299 150.792-15.371-7.417-32.619-13.807-51.227-19.061zM189.432 24.44c-25.379 19.855-44.701 49.033-57.942 78.41-16.727-4.636-32.308-10.217-46.332-16.66 28.325-28.497 63.654-50.039 104.274-61.75zm237.411 61.749c-14.024 6.443-29.606 12.024-46.333 16.66-13.245-29.386-32.57-58.561-57.942-78.41 38.531 11.11 74.411 31.706 104.275 61.75zM248.5 118.77c-35.805-.517-70.659-4.723-102.135-12.12 20.19-43.737 55.054-86.989 102.135-91.297zm15-103.417c47.15 4.315 81.974 47.624 102.135 91.297-31.476 7.397-66.33 11.603-102.135 12.12z" opacity="1" data-original="#60b9fe" class=""></path><path fill="#dbedff" d="M419.803 184.516h-274.63l-10.409 10.152v125.25l10.718 7.566h274.321c9.429 0 17.073-7.644 17.073-17.073V201.59c0-9.43-7.644-17.074-17.073-17.074z" opacity="1" data-original="#dbedff"></path><path fill="#b5dcff" d="M138.106 311.258V200.741c0-7.437 4.691-13.762 11.268-16.225H92.197c-9.43 0-17.074 7.644-17.074 17.073v108.82c0 9.429 7.644 17.073 17.074 17.073h57.178c-6.578-2.462-11.269-8.787-11.269-16.224z" opacity="1" data-original="#b5dcff"></path><g fill="#60b9fe"><path d="M194.408 223.604c-3.884-1.436-8.198.555-9.632 4.44l-12.78 34.642-9.88-27.722-.007-.017c-2.427-6.733-11.786-6.479-14.116 0l-.007.017-9.879 27.722-12.78-34.642a7.497 7.497 0 0 0-9.633-4.44 7.5 7.5 0 0 0-4.44 9.632l19.939 54.045a7.5 7.5 0 0 0 7.036 4.904h.042a7.5 7.5 0 0 0 7.023-4.982l9.757-27.379 9.758 27.379a7.498 7.498 0 0 0 7.023 4.982h.042a7.5 7.5 0 0 0 7.036-4.904l19.938-54.045a7.5 7.5 0 0 0-4.44-9.632zM295.357 223.604c-3.885-1.436-8.198.555-9.632 4.44l-12.78 34.642-9.887-27.738c-2.46-6.822-11.943-6.387-14.123.017l-9.88 27.722-12.78-34.642a7.498 7.498 0 0 0-9.632-4.44 7.5 7.5 0 0 0-4.441 9.632l19.938 54.045a7.5 7.5 0 0 0 7.036 4.904h.042a7.5 7.5 0 0 0 7.023-4.982l9.758-27.38 9.758 27.38a7.498 7.498 0 0 0 7.023 4.982h.042a7.5 7.5 0 0 0 7.036-4.904l19.938-54.045a7.5 7.5 0 0 0-4.439-9.633zM396.306 223.604c-3.884-1.436-8.198.555-9.632 4.44l-12.78 34.642-9.887-27.738c-2.469-6.838-11.949-6.368-14.123.017l-9.88 27.722-12.78-34.642a7.497 7.497 0 0 0-9.632-4.44 7.5 7.5 0 0 0-4.441 9.632l19.938 54.045a7.5 7.5 0 0 0 7.036 4.904h.042a7.5 7.5 0 0 0 7.023-4.982l9.758-27.38 9.758 27.38a7.498 7.498 0 0 0 7.023 4.982h.042a7.5 7.5 0 0 0 7.036-4.904l19.938-54.045a7.5 7.5 0 0 0-4.439-9.633z" fill="#60b9fe" opacity="1" data-original="#60b9fe" class=""></path></g></g></svg>