<svg width="20" height="21" viewBox="0 0 20 21" fill="none" xmlns="http://www.w3.org/2000/svg">
<path fill-rule="evenodd" clip-rule="evenodd" d="M4.25 2.30762C3.00736 2.30762 2 3.31498 2 4.55762V16.0576C2 17.3003 3.00736 18.3076 4.25 18.3076H15.75C16.9926 18.3076 18 17.3003 18 16.0576V4.55762C18 3.31498 16.9926 2.30762 15.75 2.30762H4.25ZM15 6.05762C15 5.6434 14.6642 5.30762 14.25 5.30762C13.8358 5.30762 13.5 5.6434 13.5 6.05762V14.5576C13.5 14.9718 13.8358 15.3076 14.25 15.3076C14.6642 15.3076 15 14.9718 15 14.5576V6.05762ZM6.5 12.0576C6.5 11.6434 6.16421 11.3076 5.75 11.3076C5.33579 11.3076 5 11.6434 5 12.0576V14.5576C5 14.9718 5.33579 15.3076 5.75 15.3076C6.16421 15.3076 6.5 14.9718 6.5 14.5576V12.0576ZM8.5835 9.30762C8.99771 9.30762 9.3335 9.6434 9.3335 10.0576V14.5576C9.3335 14.9718 8.99771 15.3076 8.5835 15.3076C8.16928 15.3076 7.8335 14.9718 7.8335 14.5576V10.0576C7.8335 9.6434 8.16928 9.30762 8.5835 9.30762ZM12.1636 8.05762C12.1636 7.6434 11.8278 7.30762 11.4136 7.30762C10.9994 7.30762 10.6636 7.6434 10.6636 8.05762V14.5576C10.6636 14.9718 10.9994 15.3076 11.4136 15.3076C11.8278 15.3076 12.1636 14.9718 12.1636 14.5576V8.05762Z" fill="#0F172A"/>
</svg>
