<svg width="21" height="20" viewBox="0 0 21 20" fill="none" xmlns="http://www.w3.org/2000/svg">
<path fill-rule="evenodd" clip-rule="evenodd" d="M10.5 1.875C6.01269 1.875 2.375 5.51269 2.375 10C2.375 14.4873 6.01269 18.125 10.5 18.125C14.9873 18.125 18.625 14.4873 18.625 10C18.625 5.51269 14.9873 1.875 10.5 1.875ZM8.3125 6.875C7.86194 6.875 7.62228 7.22401 7.53251 7.40355C7.42405 7.62048 7.375 7.87642 7.375 8.125C7.375 8.37358 7.42405 8.62952 7.53251 8.84645C7.62228 9.02599 7.86194 9.375 8.3125 9.375C8.76306 9.375 9.00272 9.02599 9.09249 8.84645C9.20095 8.62952 9.25 8.37358 9.25 8.125C9.25 7.87642 9.20095 7.62048 9.09249 7.40355C9.00272 7.22401 8.76306 6.875 8.3125 6.875ZM11.9075 7.40355C11.9973 7.22401 12.2369 6.875 12.6875 6.875C13.1381 6.875 13.3777 7.22401 13.4675 7.40355C13.576 7.62048 13.625 7.87642 13.625 8.125C13.625 8.37358 13.576 8.62952 13.4675 8.84645C13.3777 9.02599 13.1381 9.375 12.6875 9.375C12.2369 9.375 11.9973 9.02599 11.9075 8.84645C11.799 8.62952 11.75 8.37358 11.75 8.125C11.75 7.87642 11.799 7.62048 11.9075 7.40355ZM13.5936 13.0936C13.8377 12.8495 13.8377 12.4538 13.5936 12.2097C13.3495 11.9656 12.9538 11.9656 12.7097 12.2097C11.4893 13.4301 9.51068 13.4301 8.29029 12.2097C8.04621 11.9656 7.65049 11.9656 7.40641 12.2097C7.16233 12.4538 7.16233 12.8495 7.40641 13.0936C9.11495 14.8022 11.885 14.8022 13.5936 13.0936Z" fill="#DC2626"/>
</svg>
