<svg width="20" height="21" viewBox="0 0 20 21" fill="none" xmlns="http://www.w3.org/2000/svg">
<path d="M14.0677 3.92896C12.3417 4.61944 10.4931 5.06877 8.5633 5.23528C8.00706 5.28328 7.44397 5.30779 6.875 5.30779H6.25C3.83375 5.30779 1.875 7.26654 1.875 9.68279C1.875 11.8491 3.44954 13.6477 5.51664 13.9966C5.7952 15.1374 6.18171 16.2359 6.6647 17.2806C7.05142 18.1171 8.05984 18.3807 8.81691 17.9436L9.36384 17.6278C10.0972 17.2044 10.3352 16.3006 10.0072 15.571C9.81152 15.1357 9.63685 14.6889 9.48452 14.2319C11.0823 14.447 12.6182 14.8568 14.0677 15.4366C14.6724 13.6288 15 11.694 15 9.68277C15 7.6715 14.6724 5.73675 14.0677 3.92896Z" fill="#0F172A"/>
<path d="M15.2172 3.42504C15.8867 5.38812 16.25 7.49302 16.25 9.68277C16.25 11.8725 15.8867 13.9774 15.2172 15.9405C15.1712 16.0753 15.1239 16.2095 15.0751 16.3429C14.9564 16.6671 15.123 17.0261 15.4472 17.1447C15.7713 17.2634 16.1303 17.0968 16.2489 16.7726C16.3656 16.4539 16.4747 16.1314 16.5758 15.8055C17.0122 14.3999 17.3023 12.9301 17.4283 11.4142C17.8591 10.9655 18.125 10.355 18.125 9.68279C18.125 9.01058 17.8591 8.40004 17.4283 7.95133C17.3023 6.43543 17.0122 4.96567 16.5758 3.56005C16.4747 3.23415 16.3656 2.9117 16.2489 2.59295C16.1303 2.2688 15.7713 2.10222 15.4472 2.22087C15.123 2.33952 14.9564 2.69848 15.0751 3.02263C15.1239 3.15606 15.1712 3.29025 15.2172 3.42504Z" fill="#0F172A"/>
</svg>
