<svg width="20" height="21" viewBox="0 0 20 21" fill="none" xmlns="http://www.w3.org/2000/svg">
<path d="M15.3125 2.18262C14.4496 2.18262 13.75 2.88217 13.75 3.74512V16.8701C13.75 17.7331 14.4496 18.4326 15.3125 18.4326H15.9375C16.8004 18.4326 17.5 17.7331 17.5 16.8701V3.74512C17.5 2.88217 16.8004 2.18262 15.9375 2.18262H15.3125Z" fill="#0F172A"/>
<path d="M8.125 7.49512C8.125 6.63217 8.82456 5.93262 9.6875 5.93262H10.3125C11.1754 5.93262 11.875 6.63217 11.875 7.49512V16.8701C11.875 17.7331 11.1754 18.4326 10.3125 18.4326H9.6875C8.82456 18.4326 8.125 17.7331 8.125 16.8701V7.49512Z" fill="#0F172A"/>
<path d="M2.5 11.2451C2.5 10.3822 3.19956 9.68262 4.0625 9.68262H4.6875C5.55044 9.68262 6.25 10.3822 6.25 11.2451V16.8701C6.25 17.7331 5.55044 18.4326 4.6875 18.4326H4.0625C3.19956 18.4326 2.5 17.7331 2.5 16.8701V11.2451Z" fill="#0F172A"/>
</svg>
