<svg width="20" height="21" viewBox="0 0 20 21" fill="none" xmlns="http://www.w3.org/2000/svg">
<path fill-rule="evenodd" clip-rule="evenodd" d="M1.875 5.30762C1.875 3.92691 2.99429 2.80762 4.375 2.80762H15.625C17.0057 2.80762 18.125 3.92691 18.125 5.30762V15.3076C18.125 16.6883 17.0057 17.8076 15.625 17.8076H4.375C2.99429 17.8076 1.875 16.6883 1.875 15.3076V5.30762ZM16.875 7.80762H3.125V15.3076C3.125 15.998 3.68464 16.5576 4.375 16.5576H15.625C16.3154 16.5576 16.875 15.998 16.875 15.3076V7.80762ZM4.375 4.68262C4.02982 4.68262 3.75 4.96244 3.75 5.30762V5.31387C3.75 5.65905 4.02982 5.93887 4.375 5.93887H4.38125C4.72643 5.93887 5.00625 5.65905 5.00625 5.31387V5.30762C5.00625 4.96244 4.72643 4.68262 4.38125 4.68262H4.375ZM5.625 5.30762C5.625 4.96244 5.90482 4.68262 6.25 4.68262H6.25625C6.60143 4.68262 6.88125 4.96244 6.88125 5.30762V5.31387C6.88125 5.65905 6.60143 5.93887 6.25625 5.93887H6.25C5.90482 5.93887 5.625 5.65905 5.625 5.31387V5.30762ZM8.125 4.68262C7.77982 4.68262 7.5 4.96244 7.5 5.30762V5.31387C7.5 5.65905 7.77982 5.93887 8.125 5.93887H8.13125C8.47643 5.93887 8.75625 5.65905 8.75625 5.31387V5.30762C8.75625 4.96244 8.47643 4.68262 8.13125 4.68262H8.125Z" fill="#0F172A"/>
</svg>
