<svg width="21" height="21" viewBox="0 0 21 21" fill="none" xmlns="http://www.w3.org/2000/svg">
<path fill-rule="evenodd" clip-rule="evenodd" d="M1.75 4.05762C1.75 2.67691 2.86929 1.55762 4.25 1.55762H5.39302C6.11 1.55762 6.73498 2.04558 6.90887 2.74116L7.83037 6.42714C7.98284 7.03703 7.75495 7.67891 7.25202 8.0561L6.174 8.86462C6.06206 8.94857 6.03772 9.07152 6.06917 9.15735C7.01542 11.7405 9.0671 13.7922 11.6503 14.7385C11.7361 14.7699 11.859 14.7456 11.943 14.6336L12.7515 13.5556C13.1287 13.0527 13.7706 12.8248 14.3805 12.9773L18.0665 13.8987C18.762 14.0726 19.25 14.6976 19.25 15.4146V16.5576C19.25 17.9383 18.1307 19.0576 16.75 19.0576H14.875C7.62626 19.0576 1.75 13.1814 1.75 5.93262V4.05762Z" fill="#1D4ED8"/>
</svg>
