<svg width="20" height="21" viewBox="0 0 20 21" fill="none" xmlns="http://www.w3.org/2000/svg">
<path fill-rule="evenodd" clip-rule="evenodd" d="M4.6967 4.12056C4.94078 4.36464 4.94078 4.76036 4.6967 5.00444C1.76777 7.93337 1.76777 12.6821 4.6967 15.611C4.94078 15.8551 4.94078 16.2508 4.6967 16.4949C4.45262 16.739 4.05689 16.739 3.81282 16.4949C0.395729 13.0778 0.395728 7.53765 3.81282 4.12056C4.05689 3.87648 4.45262 3.87648 4.6967 4.12056ZM15.3033 4.12056C15.5474 3.87648 15.9431 3.87648 16.1872 4.12056C19.6043 7.53765 19.6043 13.0778 16.1872 16.4949C15.9431 16.739 15.5474 16.739 15.3033 16.4949C15.0592 16.2508 15.0592 15.8551 15.3033 15.611C18.2322 12.6821 18.2322 7.93337 15.3033 5.00444C15.0592 4.76036 15.0592 4.36464 15.3033 4.12056ZM6.46447 5.88833C6.70854 6.1324 6.70854 6.52813 6.46447 6.77221C4.51184 8.72483 4.51184 11.8907 6.46447 13.8433C6.70854 14.0874 6.70854 14.4831 6.46447 14.7272C6.22039 14.9712 5.82466 14.9712 5.58058 14.7272C3.13981 12.2864 3.13981 8.3291 5.58058 5.88833C5.82466 5.64425 6.22039 5.64425 6.46447 5.88833ZM13.5355 5.88833C13.7796 5.64425 14.1753 5.64425 14.4194 5.88833C16.8602 8.3291 16.8602 12.2864 14.4194 14.7272C14.1753 14.9712 13.7796 14.9712 13.5355 14.7272C13.2915 14.4831 13.2915 14.0874 13.5355 13.8433C15.4882 11.8907 15.4882 8.72483 13.5355 6.77221C13.2915 6.52813 13.2915 6.1324 13.5355 5.88833ZM8.23223 7.65609C8.47631 7.90017 8.47631 8.2959 8.23223 8.53998C7.25592 9.51629 7.25592 11.0992 8.23223 12.0755C8.47631 12.3196 8.47631 12.7153 8.23223 12.9594C7.98816 13.2035 7.59243 13.2035 7.34835 12.9594C5.88388 11.4949 5.88388 9.12056 7.34835 7.65609C7.59243 7.41201 7.98816 7.41201 8.23223 7.65609ZM11.7678 7.65609C12.0118 7.41201 12.4076 7.41201 12.6517 7.65609C14.1161 9.12056 14.1161 11.4949 12.6517 12.9594C12.4076 13.2035 12.0118 13.2035 11.7678 12.9594C11.5237 12.7153 11.5237 12.3196 11.7678 12.0755C12.7441 11.0992 12.7441 9.51629 11.7678 8.53998C11.5237 8.2959 11.5237 7.90017 11.7678 7.65609ZM9.0625 10.3077C9.0625 9.78998 9.48223 9.37024 10 9.37024C10.5178 9.37024 10.9375 9.78998 10.9375 10.3077C10.9375 10.8255 10.5178 11.2452 10 11.2452C9.48223 11.2452 9.0625 10.8255 9.0625 10.3077Z" fill="#0F172A"/>
</svg>
