<svg width="20" height="21" viewBox="0 0 20 21" fill="none" xmlns="http://www.w3.org/2000/svg">
<path fill-rule="evenodd" clip-rule="evenodd" d="M1.25 4.99512C1.25 4.13217 1.94956 3.43262 2.8125 3.43262H17.1875C18.0504 3.43262 18.75 4.13217 18.75 4.99512V15.6201C18.75 16.4831 18.0504 17.1826 17.1875 17.1826H2.8125C1.94955 17.1826 1.25 16.4831 1.25 15.6201V4.99512ZM17.5 8.12012C17.5 7.94753 17.3601 7.80762 17.1875 7.80762H10.9375C10.7649 7.80762 10.625 7.94753 10.625 8.12012V9.37012C10.625 9.54271 10.7649 9.68262 10.9375 9.68262H17.1875C17.3601 9.68262 17.5 9.54271 17.5 9.37012V8.12012ZM17.5 11.2451C17.5 11.0725 17.3601 10.9326 17.1875 10.9326H10.9375C10.7649 10.9326 10.625 11.0725 10.625 11.2451V12.4951C10.625 12.6677 10.7649 12.8076 10.9375 12.8076H17.1875C17.3601 12.8076 17.5 12.6677 17.5 12.4951V11.2451ZM17.5 14.3701C17.5 14.1975 17.3601 14.0576 17.1875 14.0576H10.9375C10.7649 14.0576 10.625 14.1975 10.625 14.3701V15.6201C10.625 15.7927 10.7649 15.9326 10.9375 15.9326H17.1875C17.3601 15.9326 17.5 15.7927 17.5 15.6201V14.3701ZM9.0625 15.9326C9.23509 15.9326 9.375 15.7927 9.375 15.6201V14.3701C9.375 14.1975 9.23509 14.0576 9.0625 14.0576H2.8125C2.63991 14.0576 2.5 14.1975 2.5 14.3701V15.6201C2.5 15.7927 2.63991 15.9326 2.8125 15.9326H9.0625ZM2.8125 12.8076H9.0625C9.23509 12.8076 9.375 12.6677 9.375 12.4951V11.2451C9.375 11.0725 9.23509 10.9326 9.0625 10.9326H2.8125C2.63991 10.9326 2.5 11.0725 2.5 11.2451V12.4951C2.5 12.6677 2.63991 12.8076 2.8125 12.8076ZM2.8125 9.68262H9.0625C9.23509 9.68262 9.375 9.54271 9.375 9.37012V8.12012C9.375 7.94753 9.23509 7.80762 9.0625 7.80762H2.8125C2.63991 7.80762 2.5 7.94753 2.5 8.12012V9.37012C2.5 9.54271 2.63991 9.68262 2.8125 9.68262Z" fill="#0F172A"/>
</svg>
