<svg width="20" height="21" viewBox="0 0 20 21" fill="none" xmlns="http://www.w3.org/2000/svg">
<path d="M4.375 5.62012C4.375 3.72164 5.91402 2.18262 7.8125 2.18262C9.71098 2.18262 11.25 3.72164 11.25 5.62012C11.25 7.5186 9.71098 9.05762 7.8125 9.05762C5.91402 9.05762 4.375 7.5186 4.375 5.62012Z" fill="#1D4ED8"/>
<path d="M1.875 16.2451C1.875 12.9659 4.53331 10.3076 7.8125 10.3076C11.0917 10.3076 13.75 12.9659 13.75 16.2451V16.2472C13.75 16.2804 13.7497 16.3137 13.7491 16.3467C13.7455 16.5622 13.6312 16.7605 13.4466 16.8717C11.8006 17.8627 9.87214 18.4326 7.8125 18.4326C5.75286 18.4326 3.82441 17.8627 2.17838 16.8717C1.9938 16.7605 1.87948 16.5622 1.87586 16.3467C1.87529 16.3129 1.875 16.2791 1.875 16.2451Z" fill="#1D4ED8"/>
<path d="M15.625 6.55762C15.625 6.21244 15.3452 5.93262 15 5.93262C14.6548 5.93262 14.375 6.21244 14.375 6.55762V8.43262H12.5C12.1548 8.43262 11.875 8.71244 11.875 9.05762C11.875 9.4028 12.1548 9.68262 12.5 9.68262H14.375V11.5576C14.375 11.9028 14.6548 12.1826 15 12.1826C15.3452 12.1826 15.625 11.9028 15.625 11.5576V9.68262H17.5C17.8452 9.68262 18.125 9.40279 18.125 9.05762C18.125 8.71244 17.8452 8.43262 17.5 8.43262H15.625V6.55762Z" fill="#1D4ED8"/>
</svg>
