<svg width="21" height="21" viewBox="0 0 21 21" fill="none" xmlns="http://www.w3.org/2000/svg">
<path fill-rule="evenodd" clip-rule="evenodd" d="M16.0711 16.2219C17.6435 14.7402 18.625 12.6385 18.625 10.3076C18.625 5.8203 14.9873 2.18262 10.5 2.18262C6.01269 2.18262 2.375 5.8203 2.375 10.3076C2.375 12.6385 3.35654 14.7402 4.92886 16.2219C6.38343 17.5926 8.34361 18.4326 10.5 18.4326C12.6564 18.4326 14.6166 17.5926 16.0711 16.2219ZM5.62094 15.1512C6.76635 13.7224 8.52634 12.8076 10.5 12.8076C12.4737 12.8076 14.2337 13.7225 15.3791 15.1512C14.1336 16.4058 12.4075 17.1826 10.5 17.1826C8.5925 17.1826 6.86644 16.4058 5.62094 15.1512ZM13.625 7.80762C13.625 9.53351 12.2259 10.9326 10.5 10.9326C8.77411 10.9326 7.375 9.53351 7.375 7.80762C7.375 6.08173 8.77411 4.68262 10.5 4.68262C12.2259 4.68262 13.625 6.08173 13.625 7.80762Z" fill="#1D4ED8"/>
</svg>
